# xmcd CD Database Entry
#
# Track frame offsets:
# 150
# 16020
# 34027
# 49788
# 63958
# 80889
# 96825
# 110831
# 127683
# 144786
# 159626
# 195822
# 208934
# 225345
# 244182
# 258969
# 274684
#
# Disc length: 3866 seconds
#
# Revision: 1
# Processed by: cddbd v1.4b41PL1 Copyright (c) Steve Scherf et al.
# Submitted via: tcd 2.0b
#
DISCID=da0f1811
DTITLE=Dance Now - 2001 Disc2
DYEAR=1900
DGENRE=
TTITLE0=The Bomb
TTITLE1=Desire
TTITLE2=Summer Jam
TTITLE3=Sunday Shouting
TTITLE4=Let Me Love You Boy
TTITLE5=Sweet Love
TTITLE6=Cheeky Armada
TTITLE7=On The Beach
TTITLE8=The Club
TTITLE9=New Day Dawning
TTITLE10=Dreaming [Remix]
TTITLE11=Time To Burn
TTITLE12=Dooms Night
TTITLE13=The Power Of Love
TTITLE14=Bullet In The Gun 2000
TTITLE15=Sister Sister
TTITLE16=Everybody Scream
EXTD=
EXTT0=
EXTT1=
EXTT2=
EXTT3=
EXTT4=
EXTT5=
EXTT6=
EXTT7=
EXTT8=
EXTT9=
EXTT10=
EXTT11=
EXTT12=
EXTT13=
EXTT14=
EXTT15=
EXTT16=
PLAYORDER=
